nColumns=19
nRows=51
DataType=double
version=3
OpenSimVersion=4.1
endheader
time	ground_force_calcn_l_vx	ground_force_calcn_l_vy	ground_force_calcn_l_vz	ground_force_calcn_l_px	ground_force_calcn_l_py	ground_force_calcn_l_pz	ground_force_calcn_l_mx	ground_force_calcn_l_my	ground_force_calcn_l_mz	ground_force_calcn_r_vx	ground_force_calcn_r_vy	ground_force_calcn_r_vz	ground_force_calcn_r_px	ground_force_calcn_r_py	ground_force_calcn_r_pz	ground_force_calcn_r_mx	ground_force_calcn_r_my	ground_force_calcn_r_mz
0	0	0	0	0	0.041534	0	0	0	0	0	0	0	0	0.0342186	0	0	0	0
0.00997996	-2.67549	338.751	-36.9876	-0.261217	-2.87564e-17	0.18566	0.0539654	-6.83269	0.746051	-7.35077	343.182	35.2794	-0.214114	-2.36448e-17	-0.179817	-0.0815235	3.80605	0.391265
0.0199599	-2.615	340.245	-37.0283	-0.259384	-2.85526e-17	0.185383	0.0529741	-6.8926	0.75011	-8.05033	346.378	35.6105	-0.212425	-2.34608e-17	-0.179619	-0.0867988	3.73465	0.383952
0.0299399	-2.57447	341.668	-37.028	-0.257614	-2.83561e-17	0.185085	0.0523736	-6.9507	0.753277	-8.75004	349.559	35.9393	-0.210787	-2.32821e-17	-0.179418	-0.091937	3.67283	0.377615
0.0399198	-2.55368	343.041	-36.9822	-0.255959	-2.81727e-17	0.184786	0.0521724	-7.00844	0.755559	-9.44281	352.694	36.2746	-0.209232	-2.31125e-17	-0.179233	-0.0966678	3.61059	0.37135
0.0498998	-2.55424	344.373	-36.8987	-0.254423	-2.80027e-17	0.18447	0.052366	-7.0602	0.756482	-10.1006	355.674	36.5962	-0.20777	-2.2953e-17	-0.179048	-0.100839	3.55084	0.365354
0.0598798	-2.6073	345.679	-36.7867	-0.253004	-2.78462e-17	0.184119	0.0536001	-7.10638	0.756252	-10.7143	358.407	36.8859	-0.206419	-2.28051e-17	-0.178857	-0.104956	3.51091	0.361331
0.0698597	-2.73565	346.967	-36.6397	-0.251725	-2.77052e-17	0.183772	0.0564322	-7.1574	0.755821	-11.27	360.853	37.1371	-0.205201	-2.26712e-17	-0.178679	-0.109131	3.49426	0.359611
0.0798397	-2.93686	348.171	-36.449	-0.250621	-2.75838e-17	0.183455	0.0608258	-7.21102	0.754901	-11.7423	362.969	37.3332	-0.20415	-2.25553e-17	-0.178515	-0.113036	3.49411	0.359387
0.0898196	-3.19786	349.126	-36.2122	-0.249725	-2.74853e-17	0.183165	0.0665792	-7.26878	0.753936	-12.1433	364.665	37.4423	-0.203263	-2.24569e-17	-0.178349	-0.116912	3.51089	0.360483
0.0997996	-3.49302	349.722	-35.9432	-0.249049	-2.74105e-17	0.182936	0.0733029	-7.33908	0.754286	-12.4992	365.894	37.4515	-0.202516	-2.23739e-17	-0.178191	-0.120882	3.53864	0.362201
0.10978	-3.77303	349.952	-35.6542	-0.248576	-2.73575e-17	0.182814	0.0800236	-7.42226	0.756203	-12.8015	366.716	37.3756	-0.201881	-2.23033e-17	-0.178054	-0.124463	3.56541	0.363385
0.11976	-4.02155	349.827	-35.3675	-0.2483	-2.73258e-17	0.182812	0.0863487	-7.51133	0.759393	-13.0629	367.218	37.2239	-0.201364	-2.22456e-17	-0.177957	-0.128023	3.59892	0.364812
0.129739	-4.24136	349.341	-35.1136	-0.248244	-2.73175e-17	0.182907	0.0924161	-7.61189	0.7651	-13.3	367.414	36.9995	-0.200995	-2.22041e-17	-0.177896	-0.131858	3.64259	0.366818
0.139719	-4.40526	348.599	-34.9098	-0.248387	-2.73301e-17	0.183082	0.097624	-7.72521	0.773627	-13.4882	367.315	36.7303	-0.200755	-2.21771e-17	-0.177857	-0.135041	3.67747	0.367735
0.149699	-4.49193	347.783	-34.7651	-0.248673	-2.73581e-17	0.183336	0.10127	-7.84073	0.783776	-13.6303	366.96	36.457	-0.200623	-2.21623e-17	-0.177862	-0.137489	3.70153	0.367742
0.159679	-4.52641	347.041	-34.6845	-0.249013	-2.73917e-17	0.183644	0.103732	-7.95319	0.794871	-13.7352	366.415	36.1965	-0.200601	-2.21594e-17	-0.177914	-0.140036	3.73574	0.369037
0.169659	-4.5148	346.431	-34.6663	-0.249357	-2.74256e-17	0.183976	0.105065	-8.06191	0.806731	-13.7722	365.769	35.9634	-0.200663	-2.21653e-17	-0.177977	-0.142222	3.7772	0.371385
0.179639	-4.44594	345.954	-34.7202	-0.249722	-2.74618e-17	0.184312	0.10492	-8.16418	0.819361	-13.7291	365.149	35.7586	-0.200771	-2.21764e-17	-0.178037	-0.143584	3.81885	0.373975
0.189619	-4.32088	345.632	-34.7968	-0.250109	-2.75007e-17	0.184664	0.103211	-8.25598	0.831178	-13.6449	364.624	35.5767	-0.200923	-2.21919e-17	-0.178094	-0.144883	3.8716	0.377755
0.199599	-4.15315	345.473	-34.8657	-0.250471	-2.75376e-17	0.18503	0.100192	-8.33429	0.841112	-13.5337	364.191	35.4101	-0.201143	-2.2215e-17	-0.17813	-0.145866	3.92523	0.381649
0.209579	-3.95489	345.482	-34.9062	-0.250755	-2.75664e-17	0.185404	0.0962563	-8.40853	0.849567	-13.3682	363.855	35.2339	-0.20139	-2.22416e-17	-0.178103	-0.145666	3.96474	0.383925
0.219559	-3.73214	345.659	-34.9084	-0.250966	-2.75878e-17	0.185782	0.0915595	-8.47996	0.856399	-13.1635	363.656	35.0211	-0.201622	-2.22665e-17	-0.178034	-0.145332	4.01497	0.386653
0.229539	-3.4693	346.014	-34.8568	-0.251116	-2.76034e-17	0.186181	0.0856502	-8.5424	0.860546	-12.9531	363.583	34.7765	-0.201842	-2.22896e-17	-0.177962	-0.145516	4.08451	0.39068
0.239519	-3.15318	346.546	-34.7509	-0.25121	-2.76138e-17	0.186585	0.0782029	-8.59479	0.861869	-12.7013	363.547	34.5044	-0.202079	-2.23149e-17	-0.17786	-0.145096	4.15305	0.394168
0.249499	-2.79453	347.233	-34.5983	-0.251251	-2.76191e-17	0.186988	0.0695717	-8.64459	0.861347	-12.412	363.492	34.2248	-0.202329	-2.23419e-17	-0.177721	-0.143732	4.20927	0.396326
0.259479	-2.4133	348.042	-34.4074	-0.251239	-2.76189e-17	0.187383	0.0602824	-8.69382	0.859471	-12.1147	363.439	33.9411	-0.202546	-2.23651e-17	-0.177585	-0.142567	4.27698	0.399422
0.269459	-1.99713	348.919	-34.1858	-0.251141	-2.76098e-17	0.187761	0.0500127	-8.73771	0.85609	-11.8122	363.397	33.6599	-0.202727	-2.23839e-17	-0.177453	-0.141679	4.35868	0.403726
0.279439	-1.57045	349.754	-33.969	-0.250974	-2.75928e-17	0.188092	0.0394466	-8.7851	0.853233	-11.5075	363.334	33.3936	-0.20291	-2.2403e-17	-0.177299	-0.14037	4.43202	0.407342
0.289419	-1.17767	350.436	-33.7669	-0.250773	-2.75714e-17	0.188351	0.0297198	-8.84364	0.852146	-11.2274	363.221	33.1418	-0.203107	-2.24239e-17	-0.177132	-0.139047	4.49837	0.410449
0.299399	-0.814091	350.909	-33.586	-0.250544	-2.75468e-17	0.188536	0.0206276	-8.8914	0.851008	-11.0053	363.063	32.9041	-0.203315	-2.24462e-17	-0.176976	-0.138173	4.55832	0.413117
0.309379	-0.463338	351.144	-33.43	-0.250267	-2.75166e-17	0.188668	0.0117755	-8.92417	0.849609	-10.8359	362.839	32.6597	-0.20351	-2.24674e-17	-0.176808	-0.137397	4.60073	0.414118
0.319359	-0.125705	351.113	-33.2851	-0.249915	-2.74775e-17	0.188781	0.00320793	-8.96024	0.849417	-10.7456	362.523	32.3778	-0.203687	-2.24872e-17	-0.176614	-0.137184	4.62818	0.413354
0.329339	0.192334	350.833	-33.1388	-0.249515	-2.74329e-17	0.188884	-0.00493083	-8.99425	0.849574	-10.7705	362.118	32.0669	-0.203824	-2.25029e-17	-0.176419	-0.138163	4.64519	0.411349
0.339319	0.502994	350.377	-32.9842	-0.249108	-2.73877e-17	0.188979	-0.0129391	-9.01313	0.848487	-10.9043	361.645	31.7322	-0.203874	-2.25092e-17	-0.176254	-0.140273	4.6522	0.408203
0.349299	0.785103	349.844	-32.8258	-0.248686	-2.7341e-17	0.189067	-0.0202531	-9.02484	0.846799	-11.1369	361.061	31.3842	-0.203872	-2.25103e-17	-0.176117	-0.143182	4.64202	0.403494
0.359279	1.0129	349.315	-32.6655	-0.248216	-2.7289e-17	0.189141	-0.0261911	-9.03243	0.84465	-11.453	360.342	31.031	-0.203846	-2.25092e-17	-0.175992	-0.146538	4.6105	0.397035
0.369259	1.2155	348.83	-32.5113	-0.247683	-2.72305e-17	0.189205	-0.0314652	-9.03004	0.841609	-11.8173	359.499	30.673	-0.203787	-2.25044e-17	-0.175895	-0.150346	4.57373	0.390238
0.379238	1.40664	348.396	-32.3802	-0.247121	-2.71687e-17	0.189264	-0.0364231	-9.02122	0.838441	-12.2052	358.566	30.3357	-0.203691	-2.24956e-17	-0.175845	-0.154114	4.52758	0.383046
0.389218	1.57743	347.996	-32.2802	-0.246588	-2.71098e-17	0.189316	-0.040898	-9.02251	0.83693	-12.6038	357.539	30.0505	-0.203608	-2.24883e-17	-0.175838	-0.157746	4.47489	0.376106
0.399198	1.73955	347.639	-32.2205	-0.246098	-2.70551e-17	0.189355	-0.0451752	-9.02803	0.836752	-12.9868	356.439	29.8377	-0.203559	-2.24843e-17	-0.175874	-0.161112	4.42193	0.370162
0.409178	1.9003	347.354	-32.1955	-0.245661	-2.70064e-17	0.189394	-0.0493852	-9.02706	0.836698	-13.3392	355.334	29.7349	-0.203507	-2.24796e-17	-0.175988	-0.163971	4.36792	0.365514
0.419158	2.05469	347.142	-32.2066	-0.245296	-2.69651e-17	0.189464	-0.0534863	-9.03654	0.838379	-13.6568	354.276	29.7513	-0.203419	-2.24701e-17	-0.176208	-0.166939	4.33062	0.363676
0.429138	2.21021	346.981	-32.27	-0.245024	-2.69334e-17	0.189567	-0.0577362	-9.06404	0.842974	-13.9396	353.257	29.9107	-0.203304	-2.24568e-17	-0.176526	-0.169765	4.30221	0.364273
0.439118	2.38034	346.881	-32.3998	-0.244862	-2.6913e-17	0.189708	-0.0624693	-9.10351	0.850296	-14.1724	352.275	30.2153	-0.20321	-2.24452e-17	-0.176932	-0.172109	4.278	0.366932
0.449098	2.55716	346.873	-32.606	-0.244846	-2.69075e-17	0.189905	-0.0675807	-9.16716	0.861711	-14.3736	351.347	30.6545	-0.203157	-2.24374e-17	-0.177448	-0.174408	4.26323	0.371961
0.459078	2.70853	346.985	-32.9352	-0.244948	-2.69138e-17	0.190124	-0.0722035	-9.24984	0.877979	-14.5599	350.475	31.2104	-0.203134	-2.24324e-17	-0.178084	-0.176775	4.25521	0.378933
0.469058	2.8391	347.233	-33.4061	-0.245085	-2.69222e-17	0.190361	-0.0764557	-9.35084	0.899612	-14.715	349.637	31.8685	-0.203139	-2.24296e-17	-0.178827	-0.179472	4.26437	0.388687
0.479038	2.92985	347.596	-34.0291	-0.24522	-2.69287e-17	0.190599	-0.079852	-9.47359	0.927451	-14.8154	348.851	32.6148	-0.203194	-2.24312e-17	-0.179667	-0.182505	4.29737	0.40177
0.489018	2.94774	348.039	-34.7961	-0.245395	-2.69374e-17	0.190834	-0.0815068	-9.62346	0.962132	-14.8529	348.135	33.4377	-0.203322	-2.244e-17	-0.180604	-0.185687	4.35227	0.418027
0.498998	2.8997	348.504	-35.6713	-0.245593	-2.69468e-17	0.19107	-0.0815311	-9.7989	1.00297	-14.7812	347.488	34.3233	-0.20351	-2.24545e-17	-0.181588	-0.188257	4.42569	0.437151
